<?xml version="1.0" encoding="UTF-8"?>
<svg version="1.1" xmlns="http://www.w3.org/2000/svg" width="500" height="500">
<path d="M0 0 C165 0 330 0 500 0 C500 165 500 330 500 500 C335 500 170 500 0 500 C0 335 0 170 0 0 Z " fill="#2F3741" transform="translate(0,0)"/>
<path d="M0 0 C150.87781509 0 150.87781509 0 178.73120117 27.59936523 C181.17115055 30.04986248 183.58568762 32.52421998 186 35 C187.28197266 36.28197266 187.28197266 36.28197266 188.58984375 37.58984375 C204.60763701 53.60763701 215.62611845 73.92870079 221 96 C221.18046875 96.71414062 221.3609375 97.42828125 221.546875 98.1640625 C224.52988806 110.37829164 225.37712408 122.41036258 225.375 134.9375 C225.37681274 135.62493286 225.37862549 136.31236572 225.38049316 137.02062988 C225.37636759 150.828939 224.05491149 164.17367145 219.875 177.375 C219.56715576 178.3561377 219.25931152 179.33727539 218.94213867 180.34814453 C213.12910637 198.30984342 204.42875718 215.21103279 190.62158203 228.37329102 C188.91011022 230.09017398 187.43221485 231.90576574 185.9375 233.8125 C164.36181391 258.47042696 127.49314303 267.47663982 96.26171875 269.65625 C87.24238675 270.16212754 78.21853639 270.1845727 69.1875 270.1875 C68.36666931 270.18849701 67.54583862 270.18949402 66.70013428 270.19052124 C58.67261295 270.18941632 50.74119929 270.09921095 42.75170898 269.24731445 C35.53101646 268.59834262 28.25023587 268.58886624 21.00585938 268.39453125 C19.73419922 268.35714844 18.46253906 268.31976563 17.15234375 268.28125 C16.01788818 268.25095703 14.88343262 268.22066406 13.71459961 268.18945312 C9.13186179 267.95572295 4.56592152 267.45659215 0 267 C0 178.89 0 90.78 0 0 Z " fill="#FAFDFA" transform="translate(258,115)"/>
<path d="M0 0 C133.64516129 0 133.64516129 0 157.5859375 23.54296875 C169.16381419 35.32692415 175.78104801 49.14760118 180 65 C180.35578125 65.99 180.7115625 66.98 181.078125 68 C185.30089609 82.84472706 183.20449112 102.59806391 178 117 C177.63777344 118.06734375 177.27554688 119.1346875 176.90234375 120.234375 C170.08061913 138.45647331 154.95925874 152.84769005 137.60107422 161.14697266 C122.31120756 168.08570031 122.31120756 168.08570031 116 169 C120.34272267 175.07981173 125.13370494 180.67600861 130.04541016 186.29492188 C134.02391514 190.852755 137.88374921 195.48947379 141.69140625 200.19140625 C144.41344091 203.5029848 147.20139731 206.75313059 150 210 C154.29977994 214.98936093 158.50485562 220.04221344 162.65625 225.15625 C165.89665275 229.08793867 169.22490254 232.94147893 172.55200195 236.79980469 C176.39494219 241.2663719 180.12416536 245.8158013 183.828125 250.3984375 C186.80272841 253.96154159 189.95929626 257.34331422 193.15234375 260.7109375 C195.06339156 263.07853585 195.93895386 265.17269129 197 268 C188.33511909 268.39036607 179.66910226 268.7187822 171 269 C169.91299805 269.03689941 168.82599609 269.07379883 167.70605469 269.11181641 C164.72064167 269.20292056 161.73636388 269.26331645 158.75 269.3125 C157.40494385 269.35697266 157.40494385 269.35697266 156.03271484 269.40234375 C150.50468386 269.45318596 147.32473417 268.77607386 143 265 C141.0859375 262.6953125 141.0859375 262.6953125 139.375 260.125 C136.14503406 255.49043201 132.70283282 251.19266675 129 246.9375 C124.90447734 242.2246959 120.92645401 237.45464097 117.0546875 232.5546875 C114.14800755 228.94067858 111.13991503 225.41603007 108.13427734 221.88427734 C105.23683996 218.47511594 102.38247953 215.03638783 99.5625 211.5625 C96.08927488 207.29254941 92.53198509 203.10504327 88.9375 198.9375 C84.89047107 194.24446053 80.96256321 189.48482535 77.12109375 184.62109375 C74.49770069 181.37929497 71.78546431 178.22073053 69.0625 175.0625 C65.30059207 170.69318214 61.55508489 166.31362091 57.875 161.875 C57.17117187 161.02679688 56.46734375 160.17859375 55.7421875 159.3046875 C52.98604521 155.65866968 51.74247245 153.05703895 51.8046875 148.453125 C51.81113281 147.60878906 51.81757812 146.76445312 51.82421875 145.89453125 C51.84097656 145.02183594 51.85773438 144.14914062 51.875 143.25 C51.88402344 142.36183594 51.89304688 141.47367188 51.90234375 140.55859375 C51.92585423 138.37211942 51.95871501 136.18619906 52 134 C52.58056656 133.99635437 53.16113312 133.99270874 53.7592926 133.98895264 C59.87694396 133.94669681 65.99387476 133.87706023 72.11108398 133.79248047 C74.38509872 133.76449161 76.65920675 133.74316892 78.93334961 133.72900391 C98.36292958 133.60081226 116.72465332 132.64926139 132 119 C141.23204233 106.15050435 143.49777864 93.49285964 142 78 C141.13165892 73.72365363 139.83458537 69.95187733 138 66 C137.63777344 65.20464844 137.27554688 64.40929687 136.90234375 63.58984375 C130.62990851 51.19381071 122.02018863 45.32701575 109 41.00390625 C85.92365037 34.30535476 59.92357036 38 37 38 C37 113.9 37 189.8 37 268 C24.79 268 12.58 268 0 268 C0 179.56 0 91.12 0 0 Z " fill="#FAFDFA" transform="translate(33,114)"/>
<path d="M0 0 C92.85381026 0 92.85381026 0 113 17 C113.50950195 17.42587402 114.01900391 17.85174805 114.54394531 18.29052734 C127.08470384 28.87744356 135.22859696 41.16123161 142 56 C142.4228125 56.9075 142.845625 57.815 143.28125 58.75 C148.33361545 70.38575073 149.47431398 82.4432351 149.3125 95 C149.31572266 96.25039062 149.31894531 97.50078125 149.32226562 98.7890625 C149.16925543 125.6632172 140.32328394 147.98387718 121.69921875 167.3984375 C89.36138248 198.41312172 40.71659085 191 0 191 C0 127.97 0 64.94 0 0 Z " fill="#2F3741" transform="translate(296,153)"/>
</svg>
