<?xml version="1.0" encoding="UTF-8"?>
<svg version="1.1" xmlns="http://www.w3.org/2000/svg" width="500" height="500">
<path d="M0 0 C165 0 330 0 500 0 C500 165 500 330 500 500 C335 500 170 500 0 500 C0 335 0 170 0 0 Z " fill="#FEFEFE" transform="translate(0,0)"/>
<path d="M0 0 C150.89787234 0 150.89787234 0 187 36 C187.83917969 36.81597656 188.67835938 37.63195312 189.54296875 38.47265625 C209.1681359 58.65943391 219.50341126 85.67677926 224 113 C224.28037109 114.56234375 224.28037109 114.56234375 224.56640625 116.15625 C228.63440807 152.21853638 220.94593657 190.5711783 198.23925781 219.46582031 C194.99660404 223.48016947 191.56391509 227.27091237 188 231 C186.99259766 232.11955078 186.99259766 232.11955078 185.96484375 233.26171875 C176.01594697 243.91726614 163.13981971 251.00103702 150 257 C149.16339844 257.38800781 148.32679688 257.77601563 147.46484375 258.17578125 C103.58532508 277.14872839 37.29082943 267 0 267 C0 178.89 0 90.78 0 0 Z " fill="#015B99" transform="translate(258,115)"/>
<path d="M0 0 C132.68897638 0 132.68897638 0 156.921875 22.796875 C168.49966325 35.07107157 176.31345115 49.58515618 180 66 C180.33644531 67.38832031 180.33644531 67.38832031 180.6796875 68.8046875 C185.08106555 90.08806357 182.09194252 112.66953163 170.99609375 131.37890625 C157.10308545 152.42967195 138.51778276 162.06564749 115 169 C116.03447266 170.21623047 116.03447266 170.21623047 117.08984375 171.45703125 C121.58324716 176.74883269 126.06139811 182.04781569 130.4375 187.4375 C134.39508188 192.30129025 138.46542446 197.05881231 142.55834961 201.80834961 C146.33334391 206.1980035 150.00728461 210.66114771 153.65625 215.15625 C156.39302049 218.47686486 159.1910295 221.74046782 162 225 C166.29853483 229.98802412 170.50294555 235.03902002 174.65234375 240.15234375 C177.40948253 243.49669345 180.23164987 246.78056581 183.0625 250.0625 C197 266.24263832 197 266.24263832 197 268 C190.20574768 268.28049666 183.4130018 268.47217298 176.61425781 268.60424805 C174.3054222 268.65933571 171.99696634 268.7342342 169.68945312 268.82983398 C149.45502828 269.64672462 149.45502828 269.64672462 144.35424805 265.69140625 C141.81733279 262.9137379 139.92541051 260.22128185 138 257 C136.54497616 255.18867201 135.06853086 253.39414514 133.5625 251.625 C132.83160156 250.72007812 132.10070312 249.81515625 131.34765625 248.8828125 C128.77184764 245.71983953 126.14294778 242.60682328 123.5 239.5 C119.37869662 234.65065425 115.33008057 229.7483847 111.3125 224.8125 C108.73853608 221.68200334 106.12430914 218.58827539 103.5 215.5 C99.37898366 210.65040619 95.33008646 205.74839194 91.3125 200.8125 C88.73853608 197.68200334 86.12430914 194.58827539 83.5 191.5 C79.3825339 186.65458409 75.3359414 181.75784535 71.32421875 176.82421875 C69.16195766 174.19679898 66.96998816 171.59952747 64.7590332 169.01318359 C63.33669087 167.34094112 61.93388867 165.6536177 60.53125 163.96484375 C58.16711716 161.09250576 58.16711716 161.09250576 55.96875 159.06640625 C51.96108711 154.97367505 51.74799653 151.37763464 51.79675293 145.86157227 C51.81612915 144.99201904 51.83550537 144.12246582 51.85546875 143.2265625 C51.8659021 142.34009033 51.87633545 141.45361816 51.88708496 140.5402832 C51.91424902 138.35981658 51.95222833 136.18009641 52 134 C52.62703323 133.99413376 53.25406647 133.98826752 53.90010071 133.98222351 C60.47120301 133.91791203 67.04183254 133.83339822 73.61254883 133.73754883 C76.05942522 133.7044502 78.50637519 133.67637222 80.95336914 133.65356445 C84.48615659 133.61974066 88.01827875 133.56741083 91.55078125 133.51171875 C92.63144363 133.50532883 93.71210602 133.4989389 94.82551575 133.49235535 C108.67373103 133.22884731 121.63876466 129.09748628 131.890625 119.5 C140.87020559 108.85753412 144.05958603 95.65688665 143 82 C140.95861791 67.79609774 135.38453238 55.9987443 124 47 C98.59345762 31.03395903 64.67818307 38.41936641 37 38 C37 113.9 37 189.8 37 268 C24.79 268 12.58 268 0 268 C0 179.56 0 91.12 0 0 Z " fill="#005B99" transform="translate(33,114)"/>
<path d="M0 0 C94.77889344 0 94.77889344 0 123.0625 26.625 C134.18547902 38.02736311 141.22736105 52.56888863 145.8125 67.6875 C146.0197168 68.36401611 146.22693359 69.04053223 146.44042969 69.73754883 C149.08400899 78.97781695 149.18141277 88.38663007 149.1875 97.9375 C149.19974609 98.94490234 149.21199219 99.95230469 149.22460938 100.99023438 C149.26618598 122.54077434 141.50234307 144.87339451 127 161 C126.21109375 161.88171875 125.4221875 162.7634375 124.609375 163.671875 C108.64692406 180.56780261 90.97241644 186.40551671 68 191 C45.56 191 23.12 191 0 191 C0 127.97 0 64.94 0 0 Z " fill="#FDFEFE" transform="translate(296,153)"/>
</svg>
